<svg width="32" height="32" viewBox="0 0 32 32" fill="currentColor" xmlns="http://www.w3.org/2000/svg">
<path d="M27 20.415L25.586 19L23 21.587L20.414 19L19 20.415L21.586 23L19 25.586L20.414 27L23 24.414L25.586 27L27 25.586L24.414 23L27 20.415Z" fill="currentColor"/>
<path d="M24 4C22.9395 4.00132 21.9229 4.42318 21.173 5.17303C20.4232 5.92289 20.0013 6.93954 20 8C20.0037 8.71179 20.1996 9.40936 20.567 10.019L10.019 20.567C9.40934 20.1996 8.71178 20.0037 8 20C7.20888 20 6.43552 20.2346 5.77772 20.6741C5.11992 21.1136 4.60723 21.7384 4.30448 22.4693C4.00173 23.2002 3.92252 24.0044 4.07686 24.7804C4.2312 25.5563 4.61216 26.269 5.17157 26.8284C5.73098 27.3878 6.44372 27.7688 7.21964 27.9231C7.99556 28.0775 8.79983 27.9983 9.53074 27.6955C10.2616 27.3928 10.8864 26.8801 11.3259 26.2223C11.7654 25.5645 12 24.7911 12 24C11.9963 23.2882 11.8004 22.5906 11.433 21.981L21.981 11.433C22.5907 11.8004 23.2882 11.9963 24 12C25.0609 12 26.0783 11.5786 26.8284 10.8284C27.5786 10.0783 28 9.06087 28 8C28 6.93913 27.5786 5.92172 26.8284 5.17157C26.0783 4.42143 25.0609 4 24 4ZM8 26C7.60444 26 7.21776 25.8827 6.88886 25.6629C6.55996 25.4432 6.30362 25.1308 6.15224 24.7654C6.00087 24.3999 5.96126 23.9978 6.03843 23.6098C6.1156 23.2219 6.30608 22.8655 6.58579 22.5858C6.86549 22.3061 7.22186 22.1156 7.60982 22.0384C7.99778 21.9613 8.39992 22.0009 8.76537 22.1522C9.13082 22.3036 9.44318 22.56 9.66294 22.8889C9.8827 23.2178 10 23.6044 10 24C9.99947 24.5303 9.78859 25.0387 9.41363 25.4136C9.03867 25.7886 8.53027 25.9995 8 26V26ZM24 10C23.6044 10 23.2178 9.8827 22.8889 9.66294C22.56 9.44318 22.3036 9.13082 22.1522 8.76537C22.0009 8.39991 21.9613 7.99778 22.0384 7.60982C22.1156 7.22186 22.3061 6.86549 22.5858 6.58579C22.8655 6.30608 23.2219 6.1156 23.6098 6.03843C23.9978 5.96126 24.3999 6.00087 24.7654 6.15224C25.1308 6.30362 25.4432 6.55996 25.6629 6.88886C25.8827 7.21776 26 7.60444 26 8C25.9995 8.53027 25.7886 9.03867 25.4136 9.41363C25.0387 9.78859 24.5303 9.99947 24 10V10Z" fill="currentColor"/>
<path d="M8 11.18L5.41 8.59L4 10L8 14L15 7L13.59 5.59L8 11.18Z" fill="currentColor"/>
</svg>
