<svg width="32" height="32" viewBox="0 0 32 32" fill="currentColor" xmlns="http://www.w3.org/2000/svg">
<path d="M11 24H21V26H11V24Z" fill="currentColor"/>
<path d="M13 28H19V30H13V28Z" fill="currentColor"/>
<path d="M23.04 16C22.5303 16.8037 21.9026 17.5261 21.178 18.143C20.107 19.135 19 20.16 19 22H21C21 21.08 21.526 20.55 22.535 19.614C23.7135 18.6355 24.651 17.3989 25.275 16H23.04Z" fill="currentColor"/>
<path d="M20 14C19.8143 13.9999 19.6324 13.9481 19.4745 13.8505C19.3166 13.7528 19.189 13.6131 19.106 13.447L17.381 10H14V8.00001H18C18.1857 8.00011 18.3676 8.0519 18.5255 8.14956C18.6834 8.24723 18.811 8.38693 18.894 8.55301L20 10.763L23.106 4.55301C23.1985 4.39849 23.3295 4.27059 23.4862 4.18178C23.6429 4.09298 23.8199 4.0463 24 4.0463C24.1801 4.0463 24.3571 4.09298 24.5138 4.18178C24.6705 4.27059 24.8015 4.39849 24.894 4.55301L26.619 8.00001H30V10H26C25.8143 9.99991 25.6324 9.94813 25.4745 9.85046C25.3166 9.75279 25.189 9.61309 25.106 9.44701L24 7.23701L20.894 13.447C20.811 13.6131 20.6834 13.7528 20.5255 13.8505C20.3676 13.9481 20.1857 13.9999 20 14Z" fill="currentColor"/>
<path d="M10.815 18.14C9.87846 17.4257 9.13189 16.4921 8.64101 15.4214C8.15013 14.3507 7.93 13.1758 8 12C8.00265 9.87908 8.84635 7.84579 10.3461 6.34607C11.8458 4.84635 13.8791 4.00265 16 4V2C13.3487 2.00291 10.8069 3.05742 8.93215 4.93215C7.05742 6.80688 6.00291 9.34873 6 12C5.9322 13.4528 6.21055 14.9009 6.81211 16.225C7.41366 17.5491 8.32122 18.7114 9.46 19.616C10.472 20.551 11 21.081 11 22H13C13 20.16 11.89 19.134 10.815 18.14Z" fill="currentColor"/>
</svg>
