<svg width="32" height="32" viewBox="0 0 32 32" fill="none" xmlns="http://www.w3.org/2000/svg">
<path d="M16 28C13.6139 27.9971 11.3265 27.0479 9.63925 25.3607C7.95206 23.6735 7.00291 21.3861 7 19C7.05382 17.2457 7.56913 15.5366 8.494 14.045L15.153 3.437C15.2492 3.30201 15.3762 3.19196 15.5236 3.11603C15.6709 3.0401 15.8343 3.00048 16 3.00048C16.1657 3.00048 16.3291 3.0401 16.4764 3.11603C16.6238 3.19196 16.7508 3.30201 16.847 3.437L23.477 13.993C24.4174 15.4985 24.9428 17.2259 25 19C24.9971 21.3861 24.0479 23.6735 22.3607 25.3607C20.6735 27.0479 18.3861 27.9971 16 28V28ZM16 5.848L10.218 15.056C9.473 16.241 9.05293 17.6012 9 19C9 20.8565 9.7375 22.637 11.0503 23.9497C12.363 25.2625 14.1435 26 16 26C17.8565 26 19.637 25.2625 20.9497 23.9497C22.2625 22.637 23 20.8565 23 19C22.9429 17.5817 22.5124 16.2036 21.752 15.005L16 5.848Z" fill="#0c9869"/>
<path d="M20.6 16.8L19.4 15.2L17 17V14H15V17L12.6 15.2L11.4 16.8L14.333 19L11.4 21.2L12.6 22.8L15 21V24H17V21L19.4 22.8L20.6 21.2L17.667 19L20.6 16.8V16.8Z" fill="#0c9869"/>
</svg>
