<svg width="32" height="32" viewBox="0 0 32 32" fill="none" xmlns="http://www.w3.org/2000/svg">
<path d="M13 30C11.6744 29.9984 10.4036 29.4711 9.46622 28.5338C8.52888 27.5964 8.00159 26.3256 8 25H10C10 25.5933 10.1759 26.1734 10.5056 26.6667C10.8352 27.1601 11.3038 27.5446 11.8519 27.7716C12.4001 27.9987 13.0033 28.0581 13.5853 27.9424C14.1672 27.8266 14.7018 27.5409 15.1213 27.1213C15.5409 26.7018 15.8266 26.1672 15.9424 25.5853C16.0581 25.0033 15.9987 24.4001 15.7716 23.8519C15.5446 23.3038 15.1601 22.8352 14.6667 22.5056C14.1734 22.1759 13.5933 22 13 22H4V20H13C14.3261 20 15.5979 20.5268 16.5355 21.4645C17.4732 22.4021 18 23.6739 18 25C18 26.3261 17.4732 27.5979 16.5355 28.5355C15.5979 29.4732 14.3261 30 13 30Z" fill="#0c9869"/>
<path d="M25 25C23.6744 24.9984 22.4036 24.4711 21.4662 23.5338C20.5289 22.5964 20.0016 21.3256 20 20H22C22 20.5933 22.1759 21.1734 22.5056 21.6667C22.8352 22.1601 23.3038 22.5446 23.8519 22.7716C24.4001 22.9987 25.0033 23.0581 25.5853 22.9424C26.1672 22.8266 26.7018 22.5409 27.1213 22.1213C27.5409 21.7018 27.8266 21.1672 27.9424 20.5853C28.0581 20.0033 27.9987 19.4001 27.7716 18.8519C27.5446 18.3038 27.1601 17.8352 26.6667 17.5056C26.1734 17.1759 25.5933 17 25 17H2V15H25C26.3261 15 27.5979 15.5268 28.5355 16.4645C29.4732 17.4021 30 18.6739 30 20C30 21.3261 29.4732 22.5979 28.5355 23.5355C27.5979 24.4732 26.3261 25 25 25Z" fill="#0c9869"/>
<path d="M21 12H6V10H21C21.5933 10 22.1734 9.82405 22.6667 9.49441C23.1601 9.16476 23.5446 8.69623 23.7716 8.14805C23.9987 7.59987 24.0581 6.99667 23.9424 6.41473C23.8266 5.83279 23.5409 5.29824 23.1213 4.87868C22.7018 4.45912 22.1672 4.1734 21.5853 4.05764C21.0033 3.94189 20.4001 4.0013 19.8519 4.22836C19.3038 4.45542 18.8352 4.83994 18.5056 5.33329C18.1759 5.82664 18 6.40666 18 7H16C16 6.01109 16.2932 5.04439 16.8427 4.22215C17.3921 3.3999 18.173 2.75904 19.0866 2.3806C20.0002 2.00216 21.0055 1.90315 21.9755 2.09607C22.9454 2.289 23.8363 2.7652 24.5355 3.46447C25.2348 4.16373 25.711 5.05464 25.9039 6.02455C26.0969 6.99445 25.9978 7.99979 25.6194 8.91342C25.241 9.82705 24.6001 10.6079 23.7779 11.1573C22.9556 11.7068 21.9889 12 21 12Z" fill="#0c9869"/>
</svg>
