<svg width="32" height="32" viewBox="0 0 32 32" fill="currentColor" xmlns="http://www.w3.org/2000/svg">
<path d="M7.667 27.503L2 22.448L3.331 20.956L8.972 25.987L16.662 18.542C17.0202 18.1952 17.4988 18.0006 17.9974 17.9991C18.496 17.9976 18.9757 18.1893 19.336 18.534L22.96 21.998L28.54 16.025L30 17.39L24.419 23.365C24.2387 23.558 24.022 23.7132 23.7812 23.8218C23.5405 23.9304 23.2807 23.9902 23.0167 23.9976C22.7527 24.005 22.4899 23.96 22.2435 23.8652C21.997 23.7703 21.7719 23.6275 21.581 23.445L18.004 20.026L10.338 27.446C9.98205 27.7907 9.5089 27.9881 9.0135 27.9985C8.51809 28.0089 8.03708 27.8315 7.667 27.502V27.503Z" fill="currentColor"/>
<path d="M30 11H26L28 8L30 11Z" fill="currentColor"/>
<path d="M22 4H18V6H22V8H19V10H22V12H18V14H22C22.5302 13.9992 23.0384 13.7882 23.4133 13.4133C23.7882 13.0384 23.9992 12.5302 24 12V6C23.9995 5.46973 23.7886 4.96133 23.4136 4.58637C23.0387 4.21141 22.5303 4.00053 22 4Z" fill="currentColor"/>
<path d="M16 14H10V10C10.0005 9.46973 10.2114 8.96133 10.5864 8.58637C10.9613 8.21141 11.4697 8.00053 12 8H14V6H10V4H14C14.5303 4.00053 15.0387 4.21141 15.4136 4.58637C15.7886 4.96133 15.9995 5.46973 16 6V8C15.9995 8.53027 15.7886 9.03867 15.4136 9.41363C15.0387 9.78859 14.5303 9.99947 14 10H12V12H16V14Z" fill="currentColor"/>
<path d="M6 12V4H4V5H2V7H4V12H2V14H8V12H6Z" fill="currentColor"/>
</svg>
